<svg width="280" height="182" viewBox="0 0 280 182" fill="none" xmlns="http://www.w3.org/2000/svg"
     xmlns:xlink="http://www.w3.org/1999/xlink">
    <g clip-path="url(#clip0_2050_3622)">
        <path d="M15.4023 126.232V71.5191C15.4023 69.8807 15.9388 68.2874 16.9297 66.9827C17.9207 65.678 19.3116 64.7337 20.8898 64.2941L137.99 31.1691C139.306 30.8004 140.698 30.8004 142.015 31.1691L259.115 64.2941C260.693 64.7337 262.084 65.678 263.075 66.9827C264.066 68.2874 264.602 69.8807 264.602 71.5191V126.232C264.602 127.87 264.066 129.463 263.075 130.768C262.084 132.073 260.693 133.017 259.115 133.457L142.015 166.582C140.698 166.95 139.306 166.95 137.99 166.582L20.8898 133.457C19.3116 133.017 17.9207 132.073 16.9297 130.768C15.9388 129.463 15.4023 127.87 15.4023 126.232Z"
              fill="url(#paint0_linear_2050_3622)"/>
        <rect x="0.00146484" y="15.75" width="280" height="166.25" fill="url(#pattern0_2050_3622)"/>
        <path d="M140.003 169.382C139.096 169.382 138.194 169.258 137.322 169.013L20.2091 135.888C18.1102 135.295 16.2617 134.034 14.9434 132.296C13.6251 130.558 12.9088 128.438 12.9028 126.257V71.5195C12.9034 69.3351 13.6192 67.211 14.9408 65.4718C16.2624 63.7326 18.1172 62.474 20.2216 61.8883L137.309 28.7633C138.186 28.5196 139.092 28.3956 140.003 28.3945C140.909 28.3948 141.811 28.5188 142.684 28.7633L259.797 61.8883C261.896 62.4809 263.745 63.7417 265.063 65.4797C266.382 67.2177 267.098 69.3381 267.103 71.5195V126.232C267.096 128.415 266.378 130.536 265.057 132.274C263.737 134.012 261.885 135.272 259.784 135.863L142.697 168.988C141.821 169.24 140.914 169.373 140.003 169.382Z"
              stroke="white" stroke-width="3.5" stroke-linecap="round" stroke-linejoin="round"/>
        <rect x="1.25342" y="17" width="277.5" height="163.75" fill="url(#pattern1_2050_3622)"/>
        <path d="M140.001 168.132C139.207 168.132 138.416 168.025 137.651 167.813L20.5509 134.657C18.7106 134.144 17.0889 133.043 15.9333 131.521C14.7776 130 14.1516 128.143 14.1509 126.232V71.5196C14.1503 69.6081 14.7756 67.749 15.9314 66.2264C17.0871 64.7039 18.7096 63.6017 20.5509 63.0883L137.645 29.9633C139.185 29.5383 140.811 29.5383 142.351 29.9633L259.451 63.0946C261.291 63.6077 262.913 64.7089 264.069 66.2302C265.224 67.7515 265.85 69.6092 265.851 71.5196V126.232C265.845 128.142 265.218 129.998 264.063 131.519C262.908 133.041 261.289 134.144 259.451 134.663L142.357 167.788C141.591 168.012 140.798 168.127 140.001 168.132Z"
              stroke="white" stroke-width="3.5" stroke-linecap="round" stroke-linejoin="round"/>
        <circle cx="140" cy="164.5" r="14" fill="#FFC800"/>
        <path d="M140.298 170.5C139.361 170.5 138.543 170.252 137.84 169.763C137.138 169.275 136.627 168.62 136.304 167.812C135.984 167.003 135.915 166.128 136.104 165.188L137.95 155.736C138.003 155.398 138.157 155.109 138.411 154.865C138.665 154.624 138.994 154.5 139.396 154.5C139.703 154.5 139.979 154.589 140.217 154.765C140.458 154.941 140.631 155.168 140.737 155.447C140.844 155.725 140.863 156.018 140.797 156.328L140.154 159.612H140.916L139.994 160.052C140.154 159.787 140.367 159.553 140.637 159.347C140.904 159.14 141.198 158.989 141.521 158.886C141.841 158.782 142.183 158.731 142.543 158.731C143.293 158.731 143.954 158.985 144.531 159.491C145.105 159.997 145.525 160.669 145.785 161.509C146.045 162.345 146.07 163.219 145.854 164.132L145.371 166.51C145.196 167.302 144.87 168.001 144.387 168.603C143.904 169.206 143.315 169.67 142.609 170.001C141.907 170.331 141.136 170.497 140.292 170.497L140.298 170.5ZM140.499 167.832C140.835 167.832 141.142 167.756 141.421 167.602C141.7 167.447 141.944 167.23 142.154 166.951C142.361 166.672 142.499 166.349 142.565 165.98L143.007 163.667C143.089 163.24 143.07 162.855 142.957 162.51C142.844 162.166 142.659 161.891 142.405 161.684C142.151 161.478 141.844 161.374 141.484 161.374C141.164 161.374 140.863 161.454 140.581 161.615C140.298 161.777 140.06 161.997 139.86 162.276C139.659 162.555 139.524 162.879 139.458 163.247L139.016 165.56C138.935 165.973 138.947 166.352 139.048 166.707C139.148 167.058 139.327 167.333 139.58 167.533C139.834 167.732 140.142 167.829 140.502 167.829L140.499 167.832Z"
              fill="#0F121D"/>
        <path d="M134.149 170.529C134.959 171.402 135.88 172.047 136.878 172.475C137.872 172.903 138.934 173.112 140 173.116C141.065 173.116 142.127 172.907 143.121 172.475C144.119 172.047 145.04 171.402 145.85 170.529C145.884 170.491 145.938 170.491 145.974 170.525C146.001 170.549 146.008 170.587 145.998 170.618C145.595 171.79 144.711 172.797 143.636 173.472C142.557 174.15 141.277 174.5 140.003 174.5C138.729 174.5 137.449 174.15 136.37 173.472C135.295 172.8 134.411 171.793 134.008 170.618C133.991 170.573 134.015 170.522 134.062 170.505C134.095 170.494 134.132 170.505 134.152 170.529H134.149Z"
              fill="#0F121D"/>
        <path d="M74.7007 72.1791C74.311 72.1791 74.0034 72.0765 73.7778 71.8715C73.5522 71.6664 73.4395 71.4023 73.4395 71.0793C73.4395 70.7563 73.5522 70.4923 73.7778 70.2872C74.0034 70.077 74.311 69.9719 74.7007 69.9719H81.6298C82.0194 69.9719 82.327 70.077 82.5526 70.2872C82.7782 70.4923 82.891 70.7563 82.891 71.0793C82.891 71.4023 82.7782 71.6664 82.5526 71.8715C82.327 72.0765 82.0194 72.1791 81.6298 72.1791H79.4303V79.9772C79.4303 80.295 79.3073 80.5719 79.0612 80.8077C78.8151 81.0385 78.5177 81.1538 78.1691 81.1538C77.8204 81.1538 77.5231 81.0385 77.277 80.8077C77.0309 80.5719 76.9078 80.295 76.9078 79.9772V72.1791H74.7007ZM93.2808 76.7472C93.2808 77.6085 93.0782 78.3853 92.6732 79.0774C92.2733 79.7695 91.7068 80.3156 90.9736 80.7155C90.2405 81.1154 89.4099 81.3153 88.4819 81.3153C87.554 81.3153 86.7208 81.1154 85.9825 80.7155C85.2494 80.3156 84.6803 79.7695 84.2753 79.0774C83.8754 78.3853 83.6754 77.6085 83.6754 76.7472V74.2247C83.6754 73.3634 83.8754 72.5867 84.2753 71.8945C84.6803 71.2024 85.2494 70.6564 85.9825 70.2565C86.7208 69.8566 87.554 69.6566 88.4819 69.6566C89.4099 69.6566 90.2405 69.8566 90.9736 70.2565C91.7068 70.6564 92.2733 71.2024 92.6732 71.8945C93.0782 72.5867 93.2808 73.3634 93.2808 74.2247V76.7472ZM90.6814 74.2247C90.6814 73.4762 90.484 72.8969 90.0892 72.4867C89.6945 72.0714 89.1587 71.8638 88.4819 71.8638C87.8052 71.8638 87.2668 72.0714 86.8669 72.4867C86.4722 72.8969 86.2748 73.4762 86.2748 74.2247V76.7472C86.2748 77.4957 86.4722 78.0776 86.8669 78.4929C87.2668 78.9031 87.8052 79.1082 88.4819 79.1082C89.1587 79.1082 89.6945 78.9031 90.0892 78.4929C90.484 78.0776 90.6814 77.4957 90.6814 76.7472V74.2247ZM95.3264 72.1791C94.9368 72.1791 94.6292 72.0765 94.4036 71.8715C94.178 71.6664 94.0652 71.4023 94.0652 71.0793C94.0652 70.7563 94.178 70.4923 94.4036 70.2872C94.6292 70.077 94.9368 69.9719 95.3264 69.9719H102.255C102.645 69.9719 102.953 70.077 103.178 70.2872C103.404 70.4923 103.517 70.7563 103.517 71.0793C103.517 71.4023 103.404 71.6664 103.178 71.8715C102.953 72.0765 102.645 72.1791 102.255 72.1791H100.056V79.9772C100.056 80.295 99.933 80.5719 99.6869 80.8077C99.4408 81.0385 99.1434 81.1538 98.7948 81.1538C98.4462 81.1538 98.1488 81.0385 97.9027 80.8077C97.6566 80.5719 97.5336 80.295 97.5336 79.9772V72.1791H95.3264ZM109.5 76.355L108.239 72.6559H108.077L106.816 76.355H109.5ZM105.562 80.0541C105.429 80.4181 105.257 80.6924 105.047 80.877C104.837 81.0615 104.563 81.1538 104.224 81.1538C103.876 81.1538 103.578 81.0385 103.332 80.8077C103.086 80.5719 102.963 80.295 102.963 79.9772C102.963 79.8234 103.014 79.5773 103.117 79.2389C103.189 79.0184 103.242 78.8698 103.278 78.7928L106.27 71.0793C106.444 70.6128 106.68 70.259 106.977 70.0181C107.275 69.7771 107.67 69.6566 108.162 69.6566C108.649 69.6566 109.041 69.7771 109.338 70.0181C109.636 70.259 109.872 70.6128 110.046 71.0793L113.037 78.7928C113.073 78.8698 113.127 79.0184 113.199 79.2389C113.302 79.5773 113.353 79.8234 113.353 79.9772C113.353 80.295 113.23 80.5719 112.984 80.8077C112.743 81.0385 112.448 81.1538 112.099 81.1538C111.761 81.1538 111.484 81.0615 111.269 80.877C111.058 80.6924 110.887 80.4181 110.753 80.0541L110.207 78.5621H106.108L105.562 80.0541ZM121.235 78.7928C121.625 78.7928 121.933 78.8979 122.158 79.1082C122.384 79.3132 122.497 79.5773 122.497 79.9003C122.497 80.2233 122.384 80.4873 122.158 80.6924C121.933 80.8975 121.625 81 121.235 81H115.96C115.611 81 115.314 80.8821 115.068 80.6462C114.822 80.4104 114.699 80.1335 114.699 79.8157V71.0024C114.699 70.6846 114.822 70.4077 115.068 70.1719C115.314 69.936 115.611 69.8181 115.96 69.8181C116.308 69.8181 116.606 69.936 116.852 70.1719C117.098 70.4077 117.221 70.6846 117.221 71.0024V78.7928H121.235ZM134.471 74.1478L132.894 79.8157C132.771 80.272 132.558 80.636 132.256 80.9077C131.958 81.1794 131.594 81.3153 131.164 81.3153C130.733 81.3153 130.369 81.1794 130.072 80.9077C129.774 80.636 129.559 80.272 129.426 79.8157L127.226 72.1791L127.096 71.7407C127.024 71.4434 126.988 71.1973 126.988 71.0024C126.988 70.6846 127.111 70.4077 127.357 70.1719C127.603 69.936 127.901 69.8181 128.249 69.8181C128.936 69.8181 129.382 70.1847 129.587 70.9178L131.241 76.8241H131.395L132.971 71.1562C133.074 70.782 133.266 70.4667 133.548 70.2103C133.835 69.9489 134.168 69.8181 134.548 69.8181C134.927 69.8181 135.258 69.9489 135.54 70.2103C135.827 70.4667 136.022 70.782 136.124 71.1562L137.701 76.8241H137.854L139.508 70.9178C139.713 70.1847 140.159 69.8181 140.846 69.8181C141.195 69.8181 141.492 69.936 141.738 70.1719C141.984 70.4077 142.107 70.6846 142.107 71.0024C142.107 71.1562 142.066 71.4023 141.984 71.7407L141.869 72.1791L139.669 79.8157C139.536 80.272 139.321 80.636 139.023 80.9077C138.726 81.1794 138.362 81.3153 137.931 81.3153C137.501 81.3153 137.134 81.1794 136.832 80.9077C136.534 80.636 136.324 80.272 136.201 79.8157L134.625 74.1478H134.471ZM146.122 79.9772C146.122 80.295 145.999 80.5719 145.753 80.8077C145.506 81.0385 145.209 81.1538 144.86 81.1538C144.512 81.1538 144.214 81.0385 143.968 80.8077C143.727 80.5719 143.607 80.295 143.607 79.9772V71.0024C143.607 70.6846 143.727 70.4077 143.968 70.1719C144.214 69.936 144.512 69.8181 144.86 69.8181C145.209 69.8181 145.506 69.936 145.753 70.1719C145.999 70.4077 146.122 70.6846 146.122 71.0024V79.9772ZM150.921 74.4631V79.9772C150.921 80.295 150.797 80.5719 150.551 80.8077C150.305 81.0385 150.008 81.1538 149.659 81.1538C149.311 81.1538 149.013 81.0385 148.767 80.8077C148.521 80.5719 148.398 80.295 148.398 79.9772V71.0024C148.398 70.6794 148.524 70.4026 148.775 70.1719C149.026 69.936 149.347 69.8181 149.736 69.8181C150.064 69.8181 150.349 69.913 150.59 70.1027C150.831 70.2872 151.072 70.559 151.313 70.9178L155.02 76.5088H155.173V71.0024C155.173 70.6846 155.296 70.4077 155.542 70.1719C155.789 69.936 156.086 69.8181 156.435 69.8181C156.783 69.8181 157.081 69.936 157.327 70.1719C157.573 70.4077 157.696 70.6846 157.696 71.0024V79.9772C157.696 80.3053 157.57 80.5847 157.319 80.8154C157.073 81.041 156.752 81.1538 156.358 81.1538C156.03 81.1538 155.745 81.0615 155.504 80.877C155.263 80.6873 155.022 80.413 154.781 80.0541L151.082 74.4631H150.921ZM162.425 74.4631V79.9772C162.425 80.295 162.302 80.5719 162.056 80.8077C161.81 81.0385 161.513 81.1538 161.164 81.1538C160.816 81.1538 160.518 81.0385 160.272 80.8077C160.026 80.5719 159.903 80.295 159.903 79.9772V71.0024C159.903 70.6794 160.029 70.4026 160.28 70.1719C160.531 69.936 160.851 69.8181 161.241 69.8181C161.569 69.8181 161.854 69.913 162.095 70.1027C162.336 70.2872 162.577 70.559 162.818 70.9178L166.524 76.5088H166.678V71.0024C166.678 70.6846 166.801 70.4077 167.047 70.1719C167.293 69.936 167.591 69.8181 167.939 69.8181C168.288 69.8181 168.585 69.936 168.832 70.1719C169.078 70.4077 169.201 70.6846 169.201 71.0024V79.9772C169.201 80.3053 169.075 80.5847 168.824 80.8154C168.578 81.041 168.257 81.1538 167.863 81.1538C167.534 81.1538 167.25 81.0615 167.009 80.877C166.768 80.6873 166.527 80.413 166.286 80.0541L162.587 74.4631H162.425ZM174.007 79.9772C174.007 80.295 173.884 80.5719 173.638 80.8077C173.392 81.0385 173.095 81.1538 172.746 81.1538C172.397 81.1538 172.1 81.0385 171.854 80.8077C171.613 80.5719 171.492 80.295 171.492 79.9772V71.0024C171.492 70.6846 171.613 70.4077 171.854 70.1719C172.1 69.936 172.397 69.8181 172.746 69.8181C173.095 69.8181 173.392 69.936 173.638 70.1719C173.884 70.4077 174.007 70.6846 174.007 71.0024V79.9772ZM178.806 74.4631V79.9772C178.806 80.295 178.683 80.5719 178.437 80.8077C178.191 81.0385 177.893 81.1538 177.545 81.1538C177.196 81.1538 176.899 81.0385 176.653 80.8077C176.407 80.5719 176.284 80.295 176.284 79.9772V71.0024C176.284 70.6794 176.409 70.4026 176.66 70.1719C176.912 69.936 177.232 69.8181 177.622 69.8181C177.95 69.8181 178.234 69.913 178.475 70.1027C178.716 70.2872 178.957 70.559 179.198 70.9178L182.905 76.5088H183.059V71.0024C183.059 70.6846 183.182 70.4077 183.428 70.1719C183.674 69.936 183.971 69.8181 184.32 69.8181C184.669 69.8181 184.966 69.936 185.212 70.1719C185.458 70.4077 185.581 70.6846 185.581 71.0024V79.9772C185.581 80.3053 185.456 80.5847 185.204 80.8154C184.958 81.041 184.638 81.1538 184.243 81.1538C183.915 81.1538 183.63 81.0615 183.39 80.877C183.149 80.6873 182.908 80.413 182.667 80.0541L178.968 74.4631H178.806ZM187.635 74.2247C187.635 73.3634 187.835 72.5867 188.234 71.8945C188.64 71.2024 189.209 70.6564 189.942 70.2565C190.68 69.8566 191.513 69.6566 192.441 69.6566C193.041 69.6566 193.605 69.7438 194.133 69.9181C194.666 70.0924 195.102 70.3129 195.44 70.5795C195.779 70.8409 196.045 71.1204 196.24 71.4177C196.435 71.7151 196.532 71.9945 196.532 72.256C196.532 72.5739 196.422 72.8379 196.202 73.0481C195.981 73.2583 195.697 73.3634 195.348 73.3634C195.133 73.3634 194.938 73.3121 194.764 73.2096C194.589 73.1071 194.433 72.984 194.295 72.8405C194.161 72.6918 194.02 72.5431 193.872 72.3944C193.723 72.2457 193.526 72.1201 193.279 72.0176C193.038 71.915 192.759 71.8638 192.441 71.8638C191.764 71.8638 191.226 72.0714 190.826 72.4867C190.431 72.8969 190.234 73.4762 190.234 74.2247V76.7472C190.234 77.4957 190.431 78.0776 190.826 78.4929C191.226 78.9031 191.764 79.1082 192.441 79.1082C193.015 79.1082 193.482 79.0031 193.841 78.7928C193.969 78.7262 194.105 78.6211 194.248 78.4775V76.8241H193.302C192.913 76.8241 192.605 76.7216 192.38 76.5165C192.154 76.3114 192.041 76.0474 192.041 75.7244C192.041 75.4014 192.154 75.1373 192.38 74.9323C192.605 74.7272 192.913 74.6246 193.302 74.6246H195.51C195.858 74.6246 196.156 74.7426 196.402 74.9784C196.648 75.2091 196.771 75.4834 196.771 75.8013V78.7928C196.771 78.9723 196.707 79.1722 196.579 79.3927C196.456 79.608 196.268 79.8285 196.017 80.0541C195.766 80.2797 195.471 80.4873 195.133 80.677C194.794 80.8667 194.389 81.0205 193.918 81.1384C193.446 81.2563 192.954 81.3153 192.441 81.3153C191.513 81.3153 190.68 81.1154 189.942 80.7155C189.209 80.3156 188.64 79.7695 188.234 79.0774C187.835 78.3853 187.635 77.6085 187.635 76.7472V74.2247ZM204.492 77.8469C204.492 77.647 204.423 77.4701 204.284 77.3163C204.151 77.1573 203.969 77.024 203.738 76.9164C203.508 76.8036 203.241 76.701 202.939 76.6088C202.641 76.5114 202.326 76.4139 201.993 76.3165C201.659 76.214 201.326 76.1038 200.993 75.9858C200.665 75.8679 200.349 75.7244 200.047 75.5552C199.75 75.3809 199.486 75.1835 199.255 74.963C199.024 74.7426 198.84 74.4708 198.701 74.1478C198.568 73.8197 198.501 73.4531 198.501 73.0481C198.501 72.0637 198.875 71.2537 199.624 70.6179C200.378 69.9771 201.421 69.6566 202.754 69.6566C203.354 69.6566 203.918 69.7438 204.446 69.9181C204.979 70.0924 205.415 70.3129 205.753 70.5795C206.097 70.8409 206.366 71.1204 206.561 71.4177C206.756 71.7151 206.853 71.9945 206.853 72.256C206.853 72.5739 206.743 72.8379 206.522 73.0481C206.302 73.2583 206.017 73.3634 205.669 73.3634C205.484 73.3634 205.312 73.3275 205.153 73.2557C205 73.1788 204.869 73.0865 204.761 72.9789C204.659 72.8661 204.538 72.7456 204.4 72.6174C204.261 72.4841 204.12 72.3636 203.977 72.256C203.833 72.1432 203.641 72.0509 203.4 71.9791C203.164 71.9022 202.898 71.8638 202.6 71.8638C202.113 71.8638 201.741 71.9612 201.485 72.156C201.229 72.3457 201.101 72.5892 201.101 72.8866C201.101 73.0865 201.167 73.266 201.301 73.4249C201.439 73.5787 201.624 73.712 201.854 73.8248C202.085 73.9325 202.349 74.035 202.646 74.1324C202.949 74.2299 203.267 74.3298 203.6 74.4324C203.933 74.5298 204.264 74.6375 204.592 74.7554C204.925 74.8682 205.241 75.0117 205.538 75.186C205.84 75.3604 206.107 75.5577 206.338 75.7782C206.568 75.9987 206.75 76.2729 206.884 76.6011C207.022 76.9241 207.091 77.2881 207.091 77.6931C207.091 78.1853 206.986 78.6493 206.776 79.0851C206.566 79.5209 206.269 79.9054 205.884 80.2386C205.5 80.5668 205.01 80.8282 204.415 81.0231C203.82 81.2179 203.162 81.3153 202.439 81.3153C201.823 81.3153 201.239 81.223 200.685 81.0385C200.137 80.859 199.686 80.6334 199.332 80.3617C198.978 80.0848 198.699 79.7952 198.494 79.4927C198.288 79.1851 198.186 78.9005 198.186 78.639C198.186 78.3212 198.296 78.0571 198.517 77.8469C198.737 77.6367 199.022 77.5316 199.37 77.5316C199.555 77.5316 199.727 77.5701 199.885 77.647C200.044 77.7239 200.178 77.8213 200.285 77.9392C200.393 78.0571 200.521 78.1853 200.67 78.3237C200.819 78.457 200.967 78.5826 201.116 78.7006C201.27 78.8185 201.475 78.9159 201.731 78.9928C201.993 79.0697 202.282 79.1082 202.6 79.1082C203.195 79.1082 203.659 78.9851 203.992 78.739C204.325 78.4878 204.492 78.1904 204.492 77.8469Z"
              fill="white"/>
    </g>
    <g clip-path="url(#clip1_2050_3622)">
        <path d="M140.001 1.05078L148.116 17.4875L166.251 20.1227L153.129 32.9172L156.225 50.9821L140.001 42.4554L123.778 50.9821L126.879 32.9172L113.751 20.1227L131.892 17.4875L140.001 1.05078Z"
              fill="#F2BF18"/>
        <g style="mix-blend-mode:multiply">
            <path d="M140.001 1.05078L148.116 17.4875L166.251 20.1227L153.129 32.9172L156.225 50.9821L140.001 42.4554L123.778 50.9821L126.879 32.9172L113.751 20.1227L131.892 17.4875L140.001 1.05078Z"
                  fill="#F2BF18"/>
        </g>
        <path style="mix-blend-mode:screen"
              d="M139.998 5.48633L146.67 19.0039L161.585 21.1689L150.792 31.692L153.338 46.5449L139.998 39.531L126.658 46.5449L129.204 31.692L118.415 21.1689L133.33 19.0039L139.998 5.48633Z"
              fill="url(#paint1_linear_2050_3622)"/>
        <path style="mix-blend-mode:screen" opacity="0.4"
              d="M140.002 5.48633L133.348 19.0039L118.415 21.1689L129.209 31.692L127.878 39.3624C135.814 32.9253 148.729 24.0259 161.248 21.4839L161.572 21.1689L146.675 19.0039L140.002 5.48633Z"
              fill="url(#paint2_linear_2050_3622)"/>
        <path d="M153.162 32.8823L150.793 31.6934L153.34 46.5463L152.865 46.2979L155.722 50.7165L156.224 50.9827L153.127 32.9178L153.162 32.8823Z"
              fill="url(#paint3_linear_2050_3622)"/>
        <path d="M140.024 39.5449L126.661 46.5455L123.991 50.871L140.002 42.4552L140.046 42.4774V39.5538L140.024 39.5449Z"
              fill="url(#paint4_linear_2050_3622)"/>
        <path d="M148.118 17.4879L148.086 17.4258L146.578 18.8099L146.676 19.0051L161.591 21.1701L161.267 21.4851L166.205 20.1187L148.118 17.4879Z"
              fill="url(#paint5_linear_2050_3622)"/>
        <path d="M129.208 31.6935L118.419 21.1704L114.08 20.4473L126.879 32.9179L126.83 33.2063L129.208 31.6935Z"
              fill="url(#paint6_linear_2050_3622)"/>
        <path d="M139.965 1.12695L131.891 17.4883L131.869 17.4927L133.333 19.0055L140.001 5.48791L139.965 1.12695Z"
              fill="url(#paint7_linear_2050_3622)"/>
    </g>
    <g clip-path="url(#clip2_2050_3622)">
        <path d="M178.064 16.502L183.879 28.2816L196.876 30.1702L187.472 39.3396L189.691 52.2861L178.064 46.1753L166.437 52.2861L168.659 39.3396L159.251 30.1702L172.252 28.2816L178.064 16.502Z"
              fill="#F2BF18"/>
        <g style="mix-blend-mode:multiply">
            <path d="M178.064 16.502L183.879 28.2816L196.876 30.1702L187.472 39.3396L189.691 52.2861L178.064 46.1753L166.437 52.2861L168.659 39.3396L159.251 30.1702L172.252 28.2816L178.064 16.502Z"
                  fill="#F2BF18"/>
        </g>
        <path style="mix-blend-mode:screen"
              d="M178.062 19.6816L182.843 29.3693L193.532 30.9208L185.797 38.4623L187.622 49.107L178.062 44.0803L168.501 49.107L170.326 38.4623L162.594 30.9208L173.283 29.3693L178.062 19.6816Z"
              fill="url(#paint8_linear_2050_3622)"/>
        <path style="mix-blend-mode:screen" opacity="0.4"
              d="M178.061 19.6816L173.292 29.3693L162.59 30.9208L170.325 38.4623L169.372 43.9595C175.059 39.3462 184.315 32.9683 193.287 31.1466L193.519 30.9208L182.843 29.3693L178.061 19.6816Z"
              fill="url(#paint9_linear_2050_3622)"/>
        <path d="M187.498 39.315L185.8 38.4629L187.625 49.1075L187.285 48.9295L189.332 52.0961L189.691 52.2869L187.472 39.3404L187.498 39.315Z"
              fill="url(#paint10_linear_2050_3622)"/>
        <path d="M178.079 44.0898L168.503 49.1069L166.589 52.2068L178.063 46.1755L178.095 46.1914V44.0962L178.079 44.0898Z"
              fill="url(#paint11_linear_2050_3622)"/>
        <path d="M183.882 28.2808L183.859 28.2363L182.778 29.2283L182.848 29.3682L193.537 30.9197L193.305 31.1455L196.844 30.1662L183.882 28.2808Z"
              fill="url(#paint12_linear_2050_3622)"/>
        <path d="M170.329 38.4621L162.597 30.9206L159.487 30.4023L168.66 39.3396L168.625 39.5463L170.329 38.4621Z"
              fill="url(#paint13_linear_2050_3622)"/>
        <path d="M178.04 16.5547L172.254 28.2803L172.238 28.2835L173.287 29.3677L178.066 19.68L178.04 16.5547Z"
              fill="url(#paint14_linear_2050_3622)"/>
    </g>
    <g clip-path="url(#clip3_2050_3622)">
        <path d="M207.815 30.3613L212.549 39.9494L223.128 41.4866L215.473 48.9501L217.279 59.4879L207.815 54.514L198.352 59.4879L200.16 48.9501L192.503 41.4866L203.085 39.9494L207.815 30.3613Z"
              fill="#F2BF18"/>
        <g style="mix-blend-mode:multiply">
            <path d="M207.815 30.3613L212.549 39.9494L223.128 41.4866L215.473 48.9501L217.279 59.4879L207.815 54.514L198.352 59.4879L200.16 48.9501L192.503 41.4866L203.085 39.9494L207.815 30.3613Z"
                  fill="#F2BF18"/>
        </g>
        <path style="mix-blend-mode:screen"
              d="M207.813 32.9492L211.705 40.8345L220.406 42.0974L214.11 48.2358L215.595 56.9001L207.813 52.8086L200.031 56.9001L201.517 48.2358L195.223 42.0974L203.924 40.8345L207.813 32.9492Z"
              fill="url(#paint15_linear_2050_3622)"/>
        <path style="mix-blend-mode:screen" opacity="0.4"
              d="M207.816 32.9492L203.934 40.8345L195.223 42.0974L201.519 48.2358L200.743 52.7103C205.373 48.9553 212.906 43.764 220.209 42.2811L220.398 42.0974L211.708 40.8345L207.816 32.9492Z"
              fill="url(#paint16_linear_2050_3622)"/>
        <path d="M215.495 48.9299L214.113 48.2363L215.599 56.9006L215.322 56.7556L216.988 59.3332L217.281 59.4884L215.475 48.9506L215.495 48.9299Z"
              fill="url(#paint17_linear_2050_3622)"/>
        <path d="M207.829 52.8164L200.034 56.9001L198.477 59.4233L207.816 54.5141L207.842 54.527V52.8216L207.829 52.8164Z"
              fill="url(#paint18_linear_2050_3622)"/>
        <path d="M212.55 39.9503L212.532 39.9141L211.652 40.7215L211.709 40.8353L220.409 42.0982L220.22 42.282L223.101 41.4849L212.55 39.9503Z"
              fill="url(#paint19_linear_2050_3622)"/>
        <path d="M201.521 48.2361L195.227 42.0976L192.696 41.6758L200.162 48.9503L200.134 49.1185L201.521 48.2361Z"
              fill="url(#paint20_linear_2050_3622)"/>
        <path d="M207.793 30.4062L203.083 39.9504L203.07 39.9529L203.924 40.8354L207.814 32.9501L207.793 30.4062Z"
              fill="url(#paint21_linear_2050_3622)"/>
    </g>
    <g clip-path="url(#clip4_2050_3622)">
        <path d="M231.875 40.7402L235.662 48.4107L244.125 49.6405L238.002 55.6112L239.447 64.0415L231.875 60.0624L224.304 64.0415L225.752 55.6112L219.625 49.6405L228.091 48.4107L231.875 40.7402Z"
              fill="#F2BF18"/>
        <g style="mix-blend-mode:multiply">
            <path d="M231.875 40.7402L235.662 48.4107L244.125 49.6405L238.002 55.6112L239.447 64.0415L231.875 60.0624L224.304 64.0415L225.752 55.6112L219.625 49.6405L228.091 48.4107L231.875 40.7402Z"
                  fill="#F2BF18"/>
        </g>
        <path style="mix-blend-mode:screen"
              d="M231.877 42.8105L234.99 49.1188L241.951 50.1291L236.914 55.0398L238.102 61.9712L231.877 58.6981L225.651 61.9712L226.84 55.0398L221.805 50.1291L228.765 49.1188L231.877 42.8105Z"
              fill="url(#paint22_linear_2050_3622)"/>
        <path style="mix-blend-mode:screen" opacity="0.4"
              d="M231.875 42.8105L228.769 49.1188L221.801 50.1291L226.838 55.0398L226.217 58.6194C229.921 55.6154 235.947 51.4624 241.79 50.2761L241.941 50.1291L234.989 49.1188L231.875 42.8105Z"
              fill="url(#paint23_linear_2050_3622)"/>
        <path d="M238.018 55.5959L236.912 55.041L238.1 61.9724L237.879 61.8565L239.212 63.9185L239.446 64.0427L238.001 55.6124L238.018 55.5959Z"
              fill="url(#paint24_linear_2050_3622)"/>
        <path d="M231.887 58.7051L225.651 61.972L224.405 63.9906L231.877 60.0632L231.897 60.0736V58.7092L231.887 58.7051Z"
              fill="url(#paint25_linear_2050_3622)"/>
        <path d="M235.664 48.4118L235.649 48.3828L234.945 49.0287L234.991 49.1198L241.951 50.1302L241.8 50.2771L244.104 49.6395L235.664 48.4118Z"
              fill="url(#paint26_linear_2050_3622)"/>
        <path d="M226.84 55.0392L221.805 50.1285L219.78 49.791L225.753 55.6106L225.73 55.7452L226.84 55.0392Z"
              fill="url(#paint27_linear_2050_3622)"/>
        <path d="M231.862 40.7754L228.094 48.4107L228.083 48.4128L228.767 49.1187L231.878 42.8105L231.862 40.7754Z"
              fill="url(#paint28_linear_2050_3622)"/>
    </g>
    <g clip-path="url(#clip5_2050_3622)">
        <path d="M251.124 51.1348L254.099 57.1616L260.749 58.1278L255.937 62.8191L257.072 69.4429L251.124 66.3165L245.175 69.4429L246.312 62.8191L241.499 58.1278L248.15 57.1616L251.124 51.1348Z"
              fill="#F2BF18"/>
        <g style="mix-blend-mode:multiply">
            <path d="M251.124 51.1348L254.099 57.1616L260.749 58.1278L255.937 62.8191L257.072 69.4429L251.124 66.3165L245.175 69.4429L246.312 62.8191L241.499 58.1278L248.15 57.1616L251.124 51.1348Z"
                  fill="#F2BF18"/>
        </g>
        <path style="mix-blend-mode:screen"
              d="M251.12 52.7617L253.567 57.7182L259.036 58.512L255.078 62.3705L256.012 67.8165L251.12 65.2448L246.229 67.8165L247.163 62.3705L243.207 58.512L248.675 57.7182L251.12 52.7617Z"
              fill="url(#paint29_linear_2050_3622)"/>
        <path style="mix-blend-mode:screen" opacity="0.4"
              d="M251.122 52.7617L248.682 57.7182L243.207 58.512L247.164 62.3705L246.676 65.183C249.586 62.8227 254.322 59.5596 258.912 58.6275L259.031 58.512L253.568 57.7182L251.122 52.7617Z"
              fill="url(#paint30_linear_2050_3622)"/>
        <path d="M255.948 62.807L255.08 62.3711L256.013 67.8172L255.839 67.7261L256.887 69.3463L257.071 69.4439L255.935 62.8201L255.948 62.807Z"
              fill="url(#paint31_linear_2050_3622)"/>
        <path d="M251.129 65.25L246.23 67.8169L245.25 69.4029L251.121 66.3171L251.137 66.3252V65.2533L251.129 65.25Z"
              fill="url(#paint32_linear_2050_3622)"/>
        <path d="M254.099 57.1614L254.087 57.1387L253.534 57.6462L253.57 57.7178L259.039 58.5116L258.92 58.6271L260.731 58.1261L254.099 57.1614Z"
              fill="url(#paint33_linear_2050_3622)"/>
        <path d="M247.165 62.3697L243.209 58.5112L241.618 58.2461L246.311 62.8187L246.293 62.9244L247.165 62.3697Z"
              fill="url(#paint34_linear_2050_3622)"/>
        <path d="M251.113 51.1621L248.152 57.1613L248.144 57.1629L248.681 57.7176L251.126 52.7611L251.113 51.1621Z"
              fill="url(#paint35_linear_2050_3622)"/>
    </g>
    <g clip-path="url(#clip6_2050_3622)">
        <path d="M28.8735 51.1348L31.8487 57.1616L38.4985 58.1278L33.6868 62.8191L34.8223 69.4429L28.8735 66.3165L22.9248 69.4429L24.0618 62.8191L19.2485 58.1278L25.9 57.1616L28.8735 51.1348Z"
              fill="#F2BF18"/>
        <g style="mix-blend-mode:multiply">
            <path d="M28.8735 51.1348L31.8487 57.1616L38.4985 58.1278L33.6868 62.8191L34.8223 69.4429L28.8735 66.3165L22.9248 69.4429L24.0618 62.8191L19.2485 58.1278L25.9 57.1616L28.8735 51.1348Z"
                  fill="#F2BF18"/>
        </g>
        <path style="mix-blend-mode:screen"
              d="M28.8703 52.7617L31.3168 57.7182L36.7857 58.512L32.828 62.3705L33.7617 67.8165L28.8703 65.2448L23.9789 67.8165L24.9126 62.3705L20.9565 58.512L26.4254 57.7182L28.8703 52.7617Z"
              fill="url(#paint36_linear_2050_3622)"/>
        <path style="mix-blend-mode:screen" opacity="0.4"
              d="M28.8719 52.7617L26.4319 57.7182L20.9565 58.512L24.9142 62.3705L24.4262 65.183C27.3363 62.8227 32.0716 59.5596 36.662 58.6275L36.7808 58.512L31.3184 57.7182L28.8719 52.7617Z"
              fill="url(#paint37_linear_2050_3622)"/>
        <path d="M33.6982 62.807L32.8296 62.3711L33.7633 67.8172L33.5892 67.7261L34.6368 69.3463L34.8206 69.4439L33.6852 62.8201L33.6982 62.807Z"
              fill="url(#paint38_linear_2050_3622)"/>
        <path d="M28.8793 65.25L23.9797 67.8169L23.0005 69.4029L28.8711 66.3171L28.8874 66.3252V65.2533L28.8793 65.25Z"
              fill="url(#paint39_linear_2050_3622)"/>
        <path d="M31.8486 57.1614L31.8372 57.1387L31.2842 57.6462L31.32 57.7178L36.7888 58.5116L36.6701 58.6271L38.4806 58.1261L31.8486 57.1614Z"
              fill="url(#paint40_linear_2050_3622)"/>
        <path d="M24.9151 62.3697L20.959 58.5112L19.3682 58.2461L24.0611 62.8187L24.0432 62.9244L24.9151 62.3697Z"
              fill="url(#paint41_linear_2050_3622)"/>
        <path d="M28.8627 51.1621L25.9022 57.1613L25.894 57.1629L26.4308 57.7176L28.8757 52.7611L28.8627 51.1621Z"
              fill="url(#paint42_linear_2050_3622)"/>
    </g>
    <g clip-path="url(#clip7_2050_3622)">
        <path d="M48.1245 40.7402L51.9111 48.4107L60.3745 49.6405L54.2505 55.6112L55.6956 64.0415L48.1245 60.0624L40.5534 64.0415L42.0005 55.6112L35.8745 49.6405L44.34 48.4107L48.1245 40.7402Z"
              fill="#F2BF18"/>
        <g style="mix-blend-mode:multiply">
            <path d="M48.1245 40.7402L51.9111 48.4107L60.3745 49.6405L54.2505 55.6112L55.6956 64.0415L48.1245 60.0624L40.5534 64.0415L42.0005 55.6112L35.8745 49.6405L44.34 48.4107L48.1245 40.7402Z"
                  fill="#F2BF18"/>
        </g>
        <path style="mix-blend-mode:screen"
              d="M48.1218 42.8105L51.2356 49.1188L58.196 50.1291L53.1589 55.0398L54.3473 61.9712L48.1218 58.6981L41.8964 61.9712L43.0848 55.0398L38.0498 50.1291L45.0102 49.1188L48.1218 42.8105Z"
              fill="url(#paint43_linear_2050_3622)"/>
        <path style="mix-blend-mode:screen" opacity="0.4"
              d="M48.1239 42.8105L45.0185 49.1188L38.0498 50.1291L43.0869 55.0398L42.4658 58.6194C46.1695 55.6154 52.1962 51.4624 58.0386 50.2761L58.1897 50.1291L51.2377 49.1188L48.1239 42.8105Z"
              fill="url(#paint44_linear_2050_3622)"/>
        <path d="M54.2667 55.5959L53.1611 55.041L54.3495 61.9724L54.128 61.8565L55.4612 63.9185L55.6952 64.0427L54.2501 55.6124L54.2667 55.5959Z"
              fill="url(#paint45_linear_2050_3622)"/>
        <path d="M48.1359 58.7051L41.9001 61.972L40.6538 63.9906L48.1255 60.0632L48.1462 60.0736V58.7092L48.1359 58.7051Z"
              fill="url(#paint46_linear_2050_3622)"/>
        <path d="M51.9127 48.4118L51.8982 48.3828L51.1943 49.0287L51.2399 49.1198L58.2003 50.1302L58.0491 50.2771L60.3534 49.6395L51.9127 48.4118Z"
              fill="url(#paint47_linear_2050_3622)"/>
        <path d="M43.089 55.0392L38.0541 50.1285L36.0293 49.791L42.0021 55.6106L41.9794 55.7452L43.089 55.0392Z"
              fill="url(#paint48_linear_2050_3622)"/>
        <path d="M48.1108 40.7754L44.3429 48.4107L44.3325 48.4128L45.0157 49.1187L48.1274 42.8105L48.1108 40.7754Z"
              fill="url(#paint49_linear_2050_3622)"/>
    </g>
    <g clip-path="url(#clip8_2050_3622)">
        <path d="M72.189 30.3613L76.9222 39.9494L87.5015 41.4866L79.8465 48.9501L81.6529 59.4879L72.189 54.514L62.7251 59.4879L64.534 48.9501L56.8765 41.4866L67.4583 39.9494L72.189 30.3613Z"
              fill="#F2BF18"/>
        <g style="mix-blend-mode:multiply">
            <path d="M72.189 30.3613L76.9222 39.9494L87.5015 41.4866L79.8465 48.9501L81.6529 59.4879L72.189 54.514L62.7251 59.4879L64.534 48.9501L56.8765 41.4866L67.4583 39.9494L72.189 30.3613Z"
                  fill="#F2BF18"/>
        </g>
        <path style="mix-blend-mode:screen"
              d="M72.1867 32.9492L76.0789 40.8345L84.7794 42.0974L78.483 48.2358L79.9685 56.9001L72.1867 52.8086L64.405 56.9001L65.8904 48.2358L59.5967 42.0974L68.2971 40.8345L72.1867 32.9492Z"
              fill="url(#paint50_linear_2050_3622)"/>
        <path style="mix-blend-mode:screen" opacity="0.4"
              d="M72.1893 32.9492L68.3075 40.8345L59.5967 42.0974L65.893 48.2358L65.1166 52.7103C69.7464 48.9553 77.2797 43.764 84.5827 42.2811L84.7716 42.0974L76.0815 40.8345L72.1893 32.9492Z"
              fill="url(#paint51_linear_2050_3622)"/>
        <path d="M79.8687 48.9299L78.4868 48.2363L79.9723 56.9006L79.6954 56.7556L81.362 59.3332L81.6544 59.4884L79.848 48.9506L79.8687 48.9299Z"
              fill="url(#paint52_linear_2050_3622)"/>
        <path d="M72.2027 52.8164L64.408 56.9001L62.8501 59.4233L72.1898 54.5141L72.2156 54.527V52.8216L72.2027 52.8164Z"
              fill="url(#paint53_linear_2050_3622)"/>
        <path d="M76.9234 39.9503L76.9053 39.9141L76.0254 40.7215L76.0823 40.8353L84.7828 42.0982L84.5939 42.282L87.4742 41.4849L76.9234 39.9503Z"
              fill="url(#paint54_linear_2050_3622)"/>
        <path d="M65.8945 48.2361L59.6008 42.0976L57.0698 41.6758L64.5359 48.9503L64.5074 49.1185L65.8945 48.2361Z"
              fill="url(#paint55_linear_2050_3622)"/>
        <path d="M72.1667 30.4062L67.4568 39.9504L67.4438 39.9529L68.2978 40.8354L72.1874 32.9501L72.1667 30.4062Z"
              fill="url(#paint56_linear_2050_3622)"/>
    </g>
    <g clip-path="url(#clip9_2050_3622)">
        <path d="M101.938 16.502L107.753 28.2816L120.75 30.1702L111.346 39.3396L113.565 52.2861L101.938 46.1753L90.3109 52.2861L92.5333 39.3396L83.1255 30.1702L96.126 28.2816L101.938 16.502Z"
              fill="#F2BF18"/>
        <g style="mix-blend-mode:multiply">
            <path d="M101.938 16.502L107.753 28.2816L120.75 30.1702L111.346 39.3396L113.565 52.2861L101.938 46.1753L90.3109 52.2861L92.5333 39.3396L83.1255 30.1702L96.126 28.2816L101.938 16.502Z"
                  fill="#F2BF18"/>
        </g>
        <path style="mix-blend-mode:screen"
              d="M101.936 19.6816L106.717 29.3693L117.407 30.9208L109.671 38.4623L111.496 49.107L101.936 44.0803L92.3751 49.107L94.2001 38.4623L86.4678 30.9208L97.1569 29.3693L101.936 19.6816Z"
              fill="url(#paint57_linear_2050_3622)"/>
        <path style="mix-blend-mode:screen" opacity="0.4"
              d="M101.935 19.6816L97.1657 29.3693L86.4639 30.9208L94.1993 38.4623L93.2455 43.9595C98.9335 39.3462 108.189 32.9683 117.161 31.1466L117.393 30.9208L106.717 29.3693L101.935 19.6816Z"
              fill="url(#paint58_linear_2050_3622)"/>
        <path d="M111.372 39.315L109.674 38.4629L111.499 49.1075L111.159 48.9295L113.206 52.0961L113.565 52.2869L111.346 39.3404L111.372 39.315Z"
              fill="url(#paint59_linear_2050_3622)"/>
        <path d="M101.953 44.0898L92.3769 49.1069L90.4629 52.2068L101.937 46.1755L101.969 46.1914V44.0962L101.953 44.0898Z"
              fill="url(#paint60_linear_2050_3622)"/>
        <path d="M107.756 28.2808L107.733 28.2363L106.652 29.2283L106.722 29.3682L117.411 30.9197L117.179 31.1455L120.718 30.1662L107.756 28.2808Z"
              fill="url(#paint61_linear_2050_3622)"/>
        <path d="M94.2031 38.4621L86.4708 30.9206L83.3613 30.4023L92.5339 39.3396L92.4989 39.5463L94.2031 38.4621Z"
              fill="url(#paint62_linear_2050_3622)"/>
        <path d="M101.914 16.5566L96.1277 28.2823L96.1118 28.2854L97.161 29.3696L101.94 19.682L101.914 16.5566Z"
              fill="url(#paint63_linear_2050_3622)"/>
    </g>
    <defs>
        <pattern id="pattern0_2050_3622" patternContentUnits="objectBoundingBox" width="1" height="1">
            <use xlink:href="#image0_2050_3622" transform="scale(0.00223214 0.0037594)"/>
        </pattern>
        <pattern id="pattern1_2050_3622" patternContentUnits="objectBoundingBox" width="1" height="1">
            <use xlink:href="#image1_2050_3622" transform="scale(0.00225225 0.00381679)"/>
        </pattern>
        <linearGradient id="paint0_linear_2050_3622" x1="140.002" y1="30.8926" x2="140.002" y2="166.858"
                        gradientUnits="userSpaceOnUse">
            <stop stop-color="#322C64"/>
            <stop offset="1" stop-color="#111526"/>
        </linearGradient>
        <linearGradient id="paint1_linear_2050_3622" x1="135.619" y1="3.25483" x2="147.154" y2="50.4268"
                        gradientUnits="userSpaceOnUse">
            <stop offset="0.05" stop-color="#FFFF54"/>
            <stop offset="0.98" stop-color="#FFFF54" stop-opacity="0"/>
        </linearGradient>
        <linearGradient id="paint2_linear_2050_3622" x1="118.415" y1="22.4244" x2="161.59" y2="22.4244"
                        gradientUnits="userSpaceOnUse">
            <stop offset="0.05" stop-color="#FFFF54"/>
            <stop offset="0.98" stop-color="#FFFF54" stop-opacity="0"/>
        </linearGradient>
        <linearGradient id="paint3_linear_2050_3622" x1="150.714" y1="30.1761" x2="156.077" y2="52.1228"
                        gradientUnits="userSpaceOnUse">
            <stop offset="0.05" stop-color="#FFFF54"/>
            <stop offset="0.98" stop-color="#FFFF54" stop-opacity="0"/>
        </linearGradient>
        <linearGradient id="paint4_linear_2050_3622" x1="131.036" y1="41.1908" x2="132.961" y2="49.0742"
                        gradientUnits="userSpaceOnUse">
            <stop offset="0.05" stop-color="#FFFF54"/>
            <stop offset="0.98" stop-color="#FFFF54" stop-opacity="0"/>
        </linearGradient>
        <linearGradient id="paint5_linear_2050_3622" x1="165.881" y1="21.2411" x2="142.816" y2="17.1374"
                        gradientUnits="userSpaceOnUse">
            <stop offset="0.05" stop-color="#FFFF54"/>
            <stop offset="0.98" stop-color="#FFFF54" stop-opacity="0"/>
        </linearGradient>
        <linearGradient id="paint6_linear_2050_3622" x1="128.725" y1="34.2133" x2="110.101" y2="12.7812"
                        gradientUnits="userSpaceOnUse">
            <stop offset="0.02" stop-color="#FFFF54" stop-opacity="0"/>
            <stop offset="0.95" stop-color="#FFFF54"/>
        </linearGradient>
        <linearGradient id="paint7_linear_2050_3622" x1="140.12" y1="14.1477" x2="133.182" y2="6.16224"
                        gradientUnits="userSpaceOnUse">
            <stop offset="0.05" stop-color="#FFFF54"/>
            <stop offset="0.98" stop-color="#FFFF54" stop-opacity="0"/>
        </linearGradient>
        <linearGradient id="paint8_linear_2050_3622" x1="174.923" y1="18.0824" x2="183.19" y2="51.8889"
                        gradientUnits="userSpaceOnUse">
            <stop offset="0.05" stop-color="#FFFF54"/>
            <stop offset="0.98" stop-color="#FFFF54" stop-opacity="0"/>
        </linearGradient>
        <linearGradient id="paint9_linear_2050_3622" x1="162.59" y1="31.8206" x2="193.532" y2="31.8206"
                        gradientUnits="userSpaceOnUse">
            <stop offset="0.05" stop-color="#FFFF54"/>
            <stop offset="0.98" stop-color="#FFFF54" stop-opacity="0"/>
        </linearGradient>
        <linearGradient id="paint10_linear_2050_3622" x1="185.743" y1="37.3755" x2="189.586" y2="53.104"
                        gradientUnits="userSpaceOnUse">
            <stop offset="0.05" stop-color="#FFFF54"/>
            <stop offset="0.98" stop-color="#FFFF54" stop-opacity="0"/>
        </linearGradient>
        <linearGradient id="paint11_linear_2050_3622" x1="171.638" y1="45.2694" x2="173.018" y2="50.9192"
                        gradientUnits="userSpaceOnUse">
            <stop offset="0.05" stop-color="#FFFF54"/>
            <stop offset="0.98" stop-color="#FFFF54" stop-opacity="0"/>
        </linearGradient>
        <linearGradient id="paint12_linear_2050_3622" x1="196.612" y1="30.9706" x2="180.082" y2="28.0297"
                        gradientUnits="userSpaceOnUse">
            <stop offset="0.05" stop-color="#FFFF54"/>
            <stop offset="0.98" stop-color="#FFFF54" stop-opacity="0"/>
        </linearGradient>
        <linearGradient id="paint13_linear_2050_3622" x1="169.983" y1="40.268" x2="156.635" y2="24.9083"
                        gradientUnits="userSpaceOnUse">
            <stop offset="0.02" stop-color="#FFFF54" stop-opacity="0"/>
            <stop offset="0.95" stop-color="#FFFF54"/>
        </linearGradient>
        <linearGradient id="paint14_linear_2050_3622" x1="178.151" y1="25.8862" x2="173.179" y2="20.1633"
                        gradientUnits="userSpaceOnUse">
            <stop offset="0.05" stop-color="#FFFF54"/>
            <stop offset="0.98" stop-color="#FFFF54" stop-opacity="0"/>
        </linearGradient>
        <linearGradient id="paint15_linear_2050_3622" x1="205.259" y1="31.6475" x2="211.987" y2="59.1645"
                        gradientUnits="userSpaceOnUse">
            <stop offset="0.05" stop-color="#FFFF54"/>
            <stop offset="0.98" stop-color="#FFFF54" stop-opacity="0"/>
        </linearGradient>
        <linearGradient id="paint16_linear_2050_3622" x1="195.223" y1="42.8298" x2="220.408" y2="42.8298"
                        gradientUnits="userSpaceOnUse">
            <stop offset="0.05" stop-color="#FFFF54"/>
            <stop offset="0.98" stop-color="#FFFF54" stop-opacity="0"/>
        </linearGradient>
        <linearGradient id="paint17_linear_2050_3622" x1="214.067" y1="47.3513" x2="217.195" y2="60.1535"
                        gradientUnits="userSpaceOnUse">
            <stop offset="0.05" stop-color="#FFFF54"/>
            <stop offset="0.98" stop-color="#FFFF54" stop-opacity="0"/>
        </linearGradient>
        <linearGradient id="paint18_linear_2050_3622" x1="202.586" y1="53.7765" x2="203.709" y2="58.3752"
                        gradientUnits="userSpaceOnUse">
            <stop offset="0.05" stop-color="#FFFF54"/>
            <stop offset="0.98" stop-color="#FFFF54" stop-opacity="0"/>
        </linearGradient>
        <linearGradient id="paint19_linear_2050_3622" x1="222.912" y1="42.1396" x2="209.457" y2="39.7459"
                        gradientUnits="userSpaceOnUse">
            <stop offset="0.05" stop-color="#FFFF54"/>
            <stop offset="0.98" stop-color="#FFFF54" stop-opacity="0"/>
        </linearGradient>
        <linearGradient id="paint20_linear_2050_3622" x1="201.239" y1="49.706" x2="190.375" y2="37.2039"
                        gradientUnits="userSpaceOnUse">
            <stop offset="0.02" stop-color="#FFFF54" stop-opacity="0"/>
            <stop offset="0.95" stop-color="#FFFF54"/>
        </linearGradient>
        <linearGradient id="paint21_linear_2050_3622" x1="207.884" y1="38.0017" x2="203.836" y2="33.3435"
                        gradientUnits="userSpaceOnUse">
            <stop offset="0.05" stop-color="#FFFF54"/>
            <stop offset="0.98" stop-color="#FFFF54" stop-opacity="0"/>
        </linearGradient>
        <linearGradient id="paint22_linear_2050_3622" x1="229.833" y1="41.7692" x2="235.216" y2="63.7827"
                        gradientUnits="userSpaceOnUse">
            <stop offset="0.05" stop-color="#FFFF54"/>
            <stop offset="0.98" stop-color="#FFFF54" stop-opacity="0"/>
        </linearGradient>
        <linearGradient id="paint23_linear_2050_3622" x1="221.801" y1="50.715" x2="241.949" y2="50.715"
                        gradientUnits="userSpaceOnUse">
            <stop offset="0.05" stop-color="#FFFF54"/>
            <stop offset="0.98" stop-color="#FFFF54" stop-opacity="0"/>
        </linearGradient>
        <linearGradient id="paint24_linear_2050_3622" x1="236.875" y1="54.333" x2="239.378" y2="64.5748"
                        gradientUnits="userSpaceOnUse">
            <stop offset="0.05" stop-color="#FFFF54"/>
            <stop offset="0.98" stop-color="#FFFF54" stop-opacity="0"/>
        </linearGradient>
        <linearGradient id="paint25_linear_2050_3622" x1="227.692" y1="59.4732" x2="228.591" y2="63.1521"
                        gradientUnits="userSpaceOnUse">
            <stop offset="0.05" stop-color="#FFFF54"/>
            <stop offset="0.98" stop-color="#FFFF54" stop-opacity="0"/>
        </linearGradient>
        <linearGradient id="paint26_linear_2050_3622" x1="243.953" y1="50.1633" x2="233.19" y2="48.2482"
                        gradientUnits="userSpaceOnUse">
            <stop offset="0.05" stop-color="#FFFF54"/>
            <stop offset="0.98" stop-color="#FFFF54" stop-opacity="0"/>
        </linearGradient>
        <linearGradient id="paint27_linear_2050_3622" x1="226.614" y1="56.2152" x2="217.923" y2="46.2135"
                        gradientUnits="userSpaceOnUse">
            <stop offset="0.02" stop-color="#FFFF54" stop-opacity="0"/>
            <stop offset="0.95" stop-color="#FFFF54"/>
        </linearGradient>
        <linearGradient id="paint28_linear_2050_3622" x1="231.934" y1="46.8517" x2="228.696" y2="43.1252"
                        gradientUnits="userSpaceOnUse">
            <stop offset="0.05" stop-color="#FFFF54"/>
            <stop offset="0.98" stop-color="#FFFF54" stop-opacity="0"/>
        </linearGradient>
        <linearGradient id="paint29_linear_2050_3622" x1="249.515" y1="51.9435" x2="253.744" y2="69.2399"
                        gradientUnits="userSpaceOnUse">
            <stop offset="0.05" stop-color="#FFFF54"/>
            <stop offset="0.98" stop-color="#FFFF54" stop-opacity="0"/>
        </linearGradient>
        <linearGradient id="paint30_linear_2050_3622" x1="243.207" y1="58.9723" x2="259.037" y2="58.9723"
                        gradientUnits="userSpaceOnUse">
            <stop offset="0.05" stop-color="#FFFF54"/>
            <stop offset="0.98" stop-color="#FFFF54" stop-opacity="0"/>
        </linearGradient>
        <linearGradient id="paint31_linear_2050_3622" x1="255.05" y1="61.8148" x2="257.017" y2="69.8619"
                        gradientUnits="userSpaceOnUse">
            <stop offset="0.05" stop-color="#FFFF54"/>
            <stop offset="0.98" stop-color="#FFFF54" stop-opacity="0"/>
        </linearGradient>
        <linearGradient id="paint32_linear_2050_3622" x1="247.834" y1="65.8535" x2="248.54" y2="68.7441"
                        gradientUnits="userSpaceOnUse">
            <stop offset="0.05" stop-color="#FFFF54"/>
            <stop offset="0.98" stop-color="#FFFF54" stop-opacity="0"/>
        </linearGradient>
        <linearGradient id="paint33_linear_2050_3622" x1="260.612" y1="58.5376" x2="252.155" y2="57.0329"
                        gradientUnits="userSpaceOnUse">
            <stop offset="0.05" stop-color="#FFFF54"/>
            <stop offset="0.98" stop-color="#FFFF54" stop-opacity="0"/>
        </linearGradient>
        <linearGradient id="paint34_linear_2050_3622" x1="246.988" y1="63.2936" x2="240.159" y2="55.4352"
                        gradientUnits="userSpaceOnUse">
            <stop offset="0.02" stop-color="#FFFF54" stop-opacity="0"/>
            <stop offset="0.95" stop-color="#FFFF54"/>
        </linearGradient>
        <linearGradient id="paint35_linear_2050_3622" x1="251.17" y1="55.9364" x2="248.626" y2="53.0084"
                        gradientUnits="userSpaceOnUse">
            <stop offset="0.05" stop-color="#FFFF54"/>
            <stop offset="0.98" stop-color="#FFFF54" stop-opacity="0"/>
        </linearGradient>
        <linearGradient id="paint36_linear_2050_3622" x1="27.2648" y1="51.9435" x2="31.4941" y2="69.2399"
                        gradientUnits="userSpaceOnUse">
            <stop offset="0.05" stop-color="#FFFF54"/>
            <stop offset="0.98" stop-color="#FFFF54" stop-opacity="0"/>
        </linearGradient>
        <linearGradient id="paint37_linear_2050_3622" x1="20.9565" y1="58.9723" x2="36.7873" y2="58.9723"
                        gradientUnits="userSpaceOnUse">
            <stop offset="0.05" stop-color="#FFFF54"/>
            <stop offset="0.98" stop-color="#FFFF54" stop-opacity="0"/>
        </linearGradient>
        <linearGradient id="paint38_linear_2050_3622" x1="32.8003" y1="61.8148" x2="34.767" y2="69.8619"
                        gradientUnits="userSpaceOnUse">
            <stop offset="0.05" stop-color="#FFFF54"/>
            <stop offset="0.98" stop-color="#FFFF54" stop-opacity="0"/>
        </linearGradient>
        <linearGradient id="paint39_linear_2050_3622" x1="25.5836" y1="65.8535" x2="26.2896" y2="68.7441"
                        gradientUnits="userSpaceOnUse">
            <stop offset="0.05" stop-color="#FFFF54"/>
            <stop offset="0.98" stop-color="#FFFF54" stop-opacity="0"/>
        </linearGradient>
        <linearGradient id="paint40_linear_2050_3622" x1="38.3618" y1="58.5376" x2="29.9048" y2="57.0329"
                        gradientUnits="userSpaceOnUse">
            <stop offset="0.05" stop-color="#FFFF54"/>
            <stop offset="0.98" stop-color="#FFFF54" stop-opacity="0"/>
        </linearGradient>
        <linearGradient id="paint41_linear_2050_3622" x1="24.7378" y1="63.2936" x2="17.909" y2="55.4352"
                        gradientUnits="userSpaceOnUse">
            <stop offset="0.02" stop-color="#FFFF54" stop-opacity="0"/>
            <stop offset="0.95" stop-color="#FFFF54"/>
        </linearGradient>
        <linearGradient id="paint42_linear_2050_3622" x1="28.9196" y1="55.9364" x2="26.3755" y2="53.0084"
                        gradientUnits="userSpaceOnUse">
            <stop offset="0.05" stop-color="#FFFF54"/>
            <stop offset="0.98" stop-color="#FFFF54" stop-opacity="0"/>
        </linearGradient>
        <linearGradient id="paint43_linear_2050_3622" x1="46.0785" y1="41.7692" x2="51.4612" y2="63.7827"
                        gradientUnits="userSpaceOnUse">
            <stop offset="0.05" stop-color="#FFFF54"/>
            <stop offset="0.98" stop-color="#FFFF54" stop-opacity="0"/>
        </linearGradient>
        <linearGradient id="paint44_linear_2050_3622" x1="38.0498" y1="50.715" x2="58.198" y2="50.715"
                        gradientUnits="userSpaceOnUse">
            <stop offset="0.05" stop-color="#FFFF54"/>
            <stop offset="0.98" stop-color="#FFFF54" stop-opacity="0"/>
        </linearGradient>
        <linearGradient id="paint45_linear_2050_3622" x1="53.1239" y1="54.333" x2="55.6269" y2="64.5748"
                        gradientUnits="userSpaceOnUse">
            <stop offset="0.05" stop-color="#FFFF54"/>
            <stop offset="0.98" stop-color="#FFFF54" stop-opacity="0"/>
        </linearGradient>
        <linearGradient id="paint46_linear_2050_3622" x1="43.9415" y1="59.4732" x2="44.84" y2="63.1521"
                        gradientUnits="userSpaceOnUse">
            <stop offset="0.05" stop-color="#FFFF54"/>
            <stop offset="0.98" stop-color="#FFFF54" stop-opacity="0"/>
        </linearGradient>
        <linearGradient id="paint47_linear_2050_3622" x1="60.2022" y1="50.1633" x2="49.4387" y2="48.2482"
                        gradientUnits="userSpaceOnUse">
            <stop offset="0.05" stop-color="#FFFF54"/>
            <stop offset="0.98" stop-color="#FFFF54" stop-opacity="0"/>
        </linearGradient>
        <linearGradient id="paint48_linear_2050_3622" x1="42.8634" y1="56.2152" x2="34.1722" y2="46.2135"
                        gradientUnits="userSpaceOnUse">
            <stop offset="0.02" stop-color="#FFFF54" stop-opacity="0"/>
            <stop offset="0.95" stop-color="#FFFF54"/>
        </linearGradient>
        <linearGradient id="paint49_linear_2050_3622" x1="48.1833" y1="46.8517" x2="44.9453" y2="43.1252"
                        gradientUnits="userSpaceOnUse">
            <stop offset="0.05" stop-color="#FFFF54"/>
            <stop offset="0.98" stop-color="#FFFF54" stop-opacity="0"/>
        </linearGradient>
        <linearGradient id="paint50_linear_2050_3622" x1="69.6325" y1="31.6475" x2="76.361" y2="59.1645"
                        gradientUnits="userSpaceOnUse">
            <stop offset="0.05" stop-color="#FFFF54"/>
            <stop offset="0.98" stop-color="#FFFF54" stop-opacity="0"/>
        </linearGradient>
        <linearGradient id="paint51_linear_2050_3622" x1="59.5967" y1="42.8298" x2="84.782" y2="42.8298"
                        gradientUnits="userSpaceOnUse">
            <stop offset="0.05" stop-color="#FFFF54"/>
            <stop offset="0.98" stop-color="#FFFF54" stop-opacity="0"/>
        </linearGradient>
        <linearGradient id="paint52_linear_2050_3622" x1="78.4402" y1="47.3513" x2="81.569" y2="60.1535"
                        gradientUnits="userSpaceOnUse">
            <stop offset="0.05" stop-color="#FFFF54"/>
            <stop offset="0.98" stop-color="#FFFF54" stop-opacity="0"/>
        </linearGradient>
        <linearGradient id="paint53_linear_2050_3622" x1="66.9597" y1="53.7765" x2="68.0828" y2="58.3752"
                        gradientUnits="userSpaceOnUse">
            <stop offset="0.05" stop-color="#FFFF54"/>
            <stop offset="0.98" stop-color="#FFFF54" stop-opacity="0"/>
        </linearGradient>
        <linearGradient id="paint54_linear_2050_3622" x1="87.2853" y1="42.1396" x2="73.8309" y2="39.7459"
                        gradientUnits="userSpaceOnUse">
            <stop offset="0.05" stop-color="#FFFF54"/>
            <stop offset="0.98" stop-color="#FFFF54" stop-opacity="0"/>
        </linearGradient>
        <linearGradient id="paint55_linear_2050_3622" x1="65.6124" y1="49.706" x2="54.7485" y2="37.2039"
                        gradientUnits="userSpaceOnUse">
            <stop offset="0.02" stop-color="#FFFF54" stop-opacity="0"/>
            <stop offset="0.95" stop-color="#FFFF54"/>
        </linearGradient>
        <linearGradient id="paint56_linear_2050_3622" x1="72.2573" y1="38.0017" x2="68.2099" y2="33.3435"
                        gradientUnits="userSpaceOnUse">
            <stop offset="0.05" stop-color="#FFFF54"/>
            <stop offset="0.98" stop-color="#FFFF54" stop-opacity="0"/>
        </linearGradient>
        <linearGradient id="paint57_linear_2050_3622" x1="98.7975" y1="18.0824" x2="107.064" y2="51.8889"
                        gradientUnits="userSpaceOnUse">
            <stop offset="0.05" stop-color="#FFFF54"/>
            <stop offset="0.98" stop-color="#FFFF54" stop-opacity="0"/>
        </linearGradient>
        <linearGradient id="paint58_linear_2050_3622" x1="86.4639" y1="31.8206" x2="117.406" y2="31.8206"
                        gradientUnits="userSpaceOnUse">
            <stop offset="0.05" stop-color="#FFFF54"/>
            <stop offset="0.98" stop-color="#FFFF54" stop-opacity="0"/>
        </linearGradient>
        <linearGradient id="paint59_linear_2050_3622" x1="109.617" y1="37.3755" x2="113.46" y2="53.104"
                        gradientUnits="userSpaceOnUse">
            <stop offset="0.05" stop-color="#FFFF54"/>
            <stop offset="0.98" stop-color="#FFFF54" stop-opacity="0"/>
        </linearGradient>
        <linearGradient id="paint60_linear_2050_3622" x1="95.5118" y1="45.2694" x2="96.8916" y2="50.9192"
                        gradientUnits="userSpaceOnUse">
            <stop offset="0.05" stop-color="#FFFF54"/>
            <stop offset="0.98" stop-color="#FFFF54" stop-opacity="0"/>
        </linearGradient>
        <linearGradient id="paint61_linear_2050_3622" x1="120.486" y1="30.9706" x2="103.956" y2="28.0297"
                        gradientUnits="userSpaceOnUse">
            <stop offset="0.05" stop-color="#FFFF54"/>
            <stop offset="0.98" stop-color="#FFFF54" stop-opacity="0"/>
        </linearGradient>
        <linearGradient id="paint62_linear_2050_3622" x1="93.8565" y1="40.268" x2="80.5094" y2="24.9083"
                        gradientUnits="userSpaceOnUse">
            <stop offset="0.02" stop-color="#FFFF54" stop-opacity="0"/>
            <stop offset="0.95" stop-color="#FFFF54"/>
        </linearGradient>
        <linearGradient id="paint63_linear_2050_3622" x1="102.025" y1="25.8882" x2="97.0529" y2="20.1653"
                        gradientUnits="userSpaceOnUse">
            <stop offset="0.05" stop-color="#FFFF54"/>
            <stop offset="0.98" stop-color="#FFFF54" stop-opacity="0"/>
        </linearGradient>
        <clipPath id="clip0_2050_3622">
            <rect width="280" height="166.25" fill="white" transform="translate(0 15.75)"/>
        </clipPath>
        <clipPath id="clip1_2050_3622">
            <rect width="52.5" height="52.5" fill="white" transform="translate(113.75)"/>
        </clipPath>
        <clipPath id="clip2_2050_3622">
            <rect width="37.625" height="37.625" fill="white" transform="translate(159.25 15.75)"/>
        </clipPath>
        <clipPath id="clip3_2050_3622">
            <rect width="30.625" height="30.625" fill="white" transform="translate(192.502 29.75)"/>
        </clipPath>
        <clipPath id="clip4_2050_3622">
            <rect width="24.5" height="24.5" fill="white" transform="translate(219.625 40.25)"/>
        </clipPath>
        <clipPath id="clip5_2050_3622">
            <rect width="19.25" height="19.25" fill="white" transform="translate(241.499 50.75)"/>
        </clipPath>
        <clipPath id="clip6_2050_3622">
            <rect width="19.25" height="19.25" fill="white" transform="translate(19.2495 50.75)"/>
        </clipPath>
        <clipPath id="clip7_2050_3622">
            <rect width="24.5" height="24.5" fill="white" transform="translate(35.8755 40.25)"/>
        </clipPath>
        <clipPath id="clip8_2050_3622">
            <rect width="30.625" height="30.625" fill="white" transform="translate(56.875 29.75)"/>
        </clipPath>
        <clipPath id="clip9_2050_3622">
            <rect width="37.625" height="37.625" fill="white" transform="translate(83.1255 15.75)"/>
        </clipPath>
    </defs>
</svg>
